<svg width="131" height="30" viewBox="0 0 131 30" fill="none" xmlns="http://www.w3.org/2000/svg">
<g clip-path="url(#clip0_1110_2582)">
<path d="M44.4469 6.79767C45.5376 6.79767 46.5456 6.93628 47.4694 7.21368C48.3932 7.49117 49.1454 7.81875 49.7242 8.19611C50.1026 8.44024 50.3975 8.71843 50.609 9.02911C50.8205 9.33987 50.9263 9.71802 50.9264 10.1619V23.284C50.9264 24.394 50.7319 25.349 50.3424 26.1483C49.9528 26.9475 49.4179 27.5969 48.7389 28.0965C48.0599 28.596 47.253 28.963 46.318 29.1961C45.383 29.4292 44.3807 29.5457 43.3121 29.5457C42.1767 29.5457 41.1964 29.4347 40.3727 29.2127C39.549 28.9907 38.9474 28.7687 38.569 28.5467C37.879 28.1248 37.5338 27.5689 37.5338 26.8807C37.5339 26.5035 37.6124 26.1867 37.7682 25.9315C37.924 25.6764 38.1241 25.4706 38.3688 25.3152C38.8807 25.6704 39.5601 25.9925 40.4059 26.2811C41.2518 26.5697 42.1538 26.7146 43.111 26.7147C44.5137 26.7147 45.5997 26.4312 46.3678 25.8651C47.1358 25.2988 47.5201 24.3825 47.5201 23.117V21.3856C47.0971 21.652 46.5787 21.8739 45.9664 22.0516C45.3542 22.2291 44.6248 22.3182 43.7789 22.3182C42.7996 22.3181 41.8701 22.1796 40.9908 21.9022C40.1115 21.6246 39.3374 21.1797 38.6696 20.5692C38.0018 19.9586 37.4722 19.165 37.0826 18.1883C36.6932 17.2115 36.4987 16.0122 36.4987 14.5916C36.4987 13.3041 36.6931 12.1765 37.0826 11.2108C37.4723 10.245 38.0181 9.43406 38.7194 8.77911C39.4206 8.12422 40.2559 7.63071 41.2242 7.29767C42.1926 6.96466 43.2671 6.79772 44.4469 6.79767ZM26.0455 6.79767C28.1157 6.79772 29.7635 7.24735 30.9879 8.1463C32.2124 9.04549 32.8247 10.4619 32.8248 12.3934V20.1531C32.8248 20.6637 32.708 21.0582 32.4742 21.3358C32.2405 21.6133 31.9228 21.8738 31.5221 22.118C30.9432 22.451 30.1976 22.74 29.2848 22.9842C28.3719 23.2284 27.3142 23.3504 26.1119 23.3504C23.9524 23.3504 22.2658 22.9285 21.0524 22.0848C19.8391 21.241 19.2321 19.9972 19.2321 18.3543C19.2322 16.8894 19.7051 15.768 20.651 14.991C21.5972 14.214 22.9617 13.736 24.7428 13.5584L29.3854 13.0926V12.3602C29.3853 11.3835 29.0676 10.6724 28.4332 10.2283C27.7987 9.78441 26.9133 9.56232 25.778 9.56232C24.8875 9.56234 24.0303 9.68436 23.2067 9.92853C22.3831 10.1727 21.6481 10.4498 21.0026 10.7606C20.7801 10.583 20.59 10.3664 20.4342 10.1111C20.2787 9.85607 20.2008 9.57296 20.2008 9.26251C20.2009 8.8854 20.295 8.574 20.484 8.3299C20.6733 8.08572 20.9691 7.87467 21.3698 7.69708C21.993 7.38635 22.7052 7.15878 23.5065 7.01447C24.3079 6.87015 25.155 6.79768 26.0455 6.79767ZM57.2721 7.09747C57.9177 7.09747 58.3905 7.22045 58.691 7.46466C58.9915 7.70884 59.1421 8.13006 59.1422 8.72931V22.785C58.9864 22.8515 58.769 22.9121 58.4908 22.9676C58.2127 23.0231 57.8957 23.0516 57.5397 23.0516C56.894 23.0516 56.4149 22.9286 56.1031 22.6844C55.7917 22.4402 55.6355 22.0299 55.6354 21.4529V7.36407C55.8134 7.31969 56.0418 7.26463 56.3199 7.19806C56.5983 7.13145 56.9159 7.09747 57.2721 7.09747ZM8.61877 6.60431C13.3109 6.60431 15.9197 9.69726 15.9772 13.8182L15.9781 13.9578V21.2264C15.9781 22.1237 15.249 22.8514 14.3492 22.8514C13.4768 22.8514 12.7647 22.167 12.7223 21.3074L12.7203 21.2264V13.9578C12.7203 11.4383 11.4102 9.85431 8.61877 9.85431C5.6671 9.85444 4.21468 11.3459 4.16858 13.8348L4.16663 13.9578V21.2264C4.16663 22.1237 3.43747 22.8514 2.53772 22.8514C1.66534 22.8513 0.953131 22.167 0.910767 21.3074L0.908813 21.2264V13.9578C0.908813 9.64427 3.7722 6.60447 8.61877 6.60431ZM25.7448 16.0233C24.7207 16.1343 23.9521 16.3618 23.4401 16.7059C22.9281 17.0499 22.6726 17.5777 22.6725 18.2879C22.6725 19.0204 22.9501 19.593 23.5065 20.0037C24.0631 20.4145 24.932 20.6199 26.1119 20.6199C26.8911 20.6199 27.5702 20.5419 28.149 20.3865C28.7279 20.2311 29.1405 20.0642 29.3854 19.8865V15.657L25.7448 16.0233ZM44.5143 9.59552C43.1563 9.59555 42.0646 10.0065 41.2408 10.8279C40.4174 11.6493 40.0056 12.8928 40.0055 14.5574C40.0055 15.4676 40.1169 16.2456 40.3395 16.8895C40.5621 17.5331 40.8625 18.0553 41.2408 18.4549C41.6192 18.8544 42.0705 19.1425 42.5934 19.3201C43.1165 19.4977 43.679 19.5867 44.2799 19.5867C45.0369 19.5867 45.6721 19.4758 46.1842 19.2537C46.6962 19.0317 47.1308 18.7657 47.4869 18.4549V10.3943C47.153 10.1946 46.7403 10.012 46.2506 9.84552C45.7609 9.67907 45.182 9.59554 44.5143 9.59552ZM47.3971 0.531067C47.9046 0.531155 48.3434 0.669025 48.7125 0.945129C49.0816 1.22128 49.2662 1.64728 49.2662 2.22247C49.2662 2.98192 49.0122 3.56893 48.5045 3.98322C47.9968 4.3975 47.3387 4.60529 46.5309 4.60529C46.0232 4.60527 45.5443 4.5475 45.0944 4.43243C44.6443 4.31736 44.2291 4.18457 43.8483 4.03497C43.4675 3.8854 43.1096 3.75355 42.775 3.63849C42.4404 3.52341 42.134 3.46564 41.8571 3.46564C41.4188 3.46573 41.096 3.5985 40.8883 3.8631C40.6807 4.12765 40.5304 4.43215 40.4381 4.77716H40.2301C39.7225 4.77711 39.2778 4.63317 38.8971 4.34552C38.5167 4.05786 38.3268 3.6266 38.3268 3.05157C38.3268 2.29205 38.615 1.70512 39.192 1.29083C39.7689 0.876638 40.4263 0.668843 41.1647 0.668762C41.6493 0.668762 42.0998 0.726542 42.5153 0.841614C42.9307 0.956694 43.3288 1.08947 43.7096 1.23907C44.0904 1.38866 44.4482 1.52049 44.7828 1.63556C45.1175 1.75064 45.435 1.80841 45.735 1.80841C46.1734 1.80839 46.5021 1.67561 46.7213 1.41095C46.9405 1.14631 47.0968 0.853221 47.1891 0.531067H47.3971Z" fill="#00163F"/>
<path d="M87.0313 6.79932C88.1867 6.79933 89.2439 6.99013 90.2032 7.37158C91.1625 7.75313 91.9804 8.29873 92.6563 9.00732C93.3321 9.71587 93.856 10.5662 94.2266 11.5581C94.5971 12.5499 94.7822 13.6672 94.7823 14.9097C94.7823 16.1524 94.5972 17.2759 94.2266 18.2788C93.856 19.2817 93.3378 20.1319 92.6729 20.8296C92.0079 21.5273 91.1957 22.0672 90.2364 22.4487C89.2771 22.8303 88.2086 23.021 87.0313 23.021C85.854 23.021 84.7855 22.8302 83.8262 22.4487C82.8669 22.0672 82.0547 21.5273 81.3897 20.8296C80.7247 20.1319 80.2066 19.2817 79.836 18.2788C79.4653 17.2759 79.2803 16.1524 79.2803 14.9097C79.2803 13.6671 79.4654 12.5443 79.836 11.5415C80.2066 10.5386 80.7304 9.68842 81.4063 8.99072C82.0821 8.29312 82.8993 7.75312 83.8584 7.37158C84.8178 6.99003 85.8757 6.79932 87.0313 6.79932ZM123.464 6.79932C124.51 6.79932 125.464 6.96828 126.325 7.30615C127.186 7.6441 127.928 8.11282 128.55 8.7124C129.171 9.31195 129.65 10.0265 129.988 10.855C130.326 11.6833 130.495 12.5879 130.495 13.5688C130.495 14.1139 130.364 14.5124 130.103 14.7632C129.841 15.0137 129.459 15.1828 128.958 15.27L119.408 16.6431C119.713 17.8857 120.308 18.8072 121.19 19.4067C122.073 20.0063 123.203 20.3062 124.576 20.3062C125.492 20.3061 126.331 20.1647 127.094 19.8813C127.857 19.5979 128.468 19.2924 128.926 18.9653C129.536 19.3142 129.841 19.8048 129.841 20.437C129.841 20.8077 129.699 21.1511 129.416 21.4673C129.133 21.7834 128.745 22.0557 128.255 22.2847C127.764 22.5136 127.186 22.6939 126.522 22.8247C125.857 22.9555 125.143 23.021 124.38 23.021C123.116 23.021 121.965 22.8463 120.93 22.4976C119.894 22.1487 119.005 21.6249 118.264 20.9272C117.523 20.2297 116.95 19.3687 116.547 18.3442C116.144 17.3195 115.941 16.1306 115.941 14.7788C115.941 13.4708 116.138 12.3206 116.53 11.3286C116.923 10.3367 117.457 9.50821 118.133 8.84326C118.809 8.17827 119.605 7.6716 120.521 7.32275C121.436 6.97391 122.417 6.79932 123.464 6.79932ZM105.477 6.79932C107.591 6.79934 109.248 7.27378 110.447 8.22217C111.646 9.1706 112.246 10.6043 112.246 12.5229V22.4976C112.094 22.5629 111.875 22.6228 111.592 22.6772C111.309 22.7317 111.004 22.7593 110.677 22.7593C110.045 22.7593 109.576 22.6387 109.271 22.3989C108.965 22.1591 108.813 21.7558 108.813 21.189V12.6538C108.813 11.5855 108.513 10.7998 107.913 10.2983C107.314 9.79693 106.501 9.54641 105.477 9.54639C104.714 9.54639 104.032 9.64418 103.433 9.84033C102.833 10.0365 102.315 10.2548 101.879 10.4946V22.4976C101.726 22.563 101.514 22.6227 101.241 22.6772C100.969 22.7318 100.669 22.7593 100.342 22.7593C99.7096 22.7593 99.2408 22.6388 98.9356 22.3989C98.6305 22.1591 98.4776 21.7557 98.4776 21.189V10.397C98.4776 9.89551 98.5763 9.49225 98.7725 9.18701C98.9687 8.8818 99.2952 8.5762 99.753 8.271C100.363 7.90035 101.16 7.56257 102.141 7.25732C103.122 6.95208 104.234 6.79932 105.477 6.79932ZM75.585 7.25732C76.0645 7.62796 76.3037 8.14048 76.3037 8.79443C76.3037 9.09959 76.2382 9.38817 76.1075 9.66064C75.9766 9.93316 75.803 10.2008 75.585 10.4624L68.0303 19.8481H76.2383C76.3255 19.979 76.4081 20.165 76.4844 20.4048C76.5606 20.6444 76.5986 20.9058 76.5987 21.189C76.5987 21.6686 76.4838 22.0178 76.2549 22.2358C76.026 22.4538 75.7261 22.563 75.3555 22.563H64.4649C64.0071 22.1705 63.7784 21.6686 63.7784 21.0581C63.7784 20.753 63.8496 20.4529 63.9912 20.1587C64.1329 19.8645 64.3019 19.5976 64.4981 19.3579L72.085 10.0044H64.334C64.2468 9.85179 64.1595 9.65531 64.0723 9.41553C63.9851 9.17576 63.9414 8.91372 63.9414 8.63037C63.9415 8.15102 64.0564 7.80246 64.2852 7.58447C64.5141 7.36645 64.814 7.25733 65.1846 7.25732H75.585ZM87.0313 9.54639C85.7231 9.54639 84.687 10.0151 83.9239 10.9526C83.1609 11.8901 82.7794 13.2093 82.7793 14.9097C82.7793 16.6103 83.1503 17.9244 83.8916 18.8511C84.6329 19.7776 85.6796 20.2407 87.0313 20.2407C88.383 20.2407 89.4297 19.7776 90.1709 18.8511C90.9122 17.9244 91.2832 16.6103 91.2832 14.9097C91.2832 13.231 90.9065 11.9176 90.1543 10.9692C89.4021 10.0208 88.3612 9.54641 87.0313 9.54639ZM123.464 9.44873C122.265 9.44873 121.268 9.85199 120.472 10.6587C119.676 11.4654 119.256 12.6211 119.212 14.1255L127.258 12.98C127.171 11.9992 126.811 11.1656 126.179 10.479C125.546 9.79222 124.641 9.44873 123.464 9.44873Z" fill="#939BA7"/>
</g>
<defs>
<clipPath id="clip0_1110_2582">
<rect width="130" height="29.142" fill="white" transform="translate(0.5 0.429016)"/>
</clipPath>
</defs>
</svg>
